<?xml version="1.0" encoding="UTF-8"?>
<svg width="19px" height="25px" viewBox="0 0 19 25" version="1.1" xmlns="http://www.w3.org/2000/svg" xmlns:xlink="http://www.w3.org/1999/xlink">
    <!-- Generator: sketchtool 50.2 (55047) - http://www.bohemiancoding.com/sketch -->
    <title>A97EF8E8-3D65-424F-BC1D-E99CA7CC8708</title>
    <desc>Created with sketchtool.</desc>
    <defs></defs>
    <g id="Page-1-Copy" stroke="none" stroke-width="1" fill="none" fill-rule="evenodd">
        <g id="Assets" transform="translate(-784.000000, -461.000000)" fill="#FF3E4A">
            <g id="Ping" transform="translate(784.000000, 461.000000)">
                <path d="M10.030591,16.0792033 L9.49776846,20.0365412 L4.47371845,13.6877668 C4.44899987,13.6577281 4.42496793,13.6266292 4.40093598,13.5955302 L4.30377826,13.4732549 L4.30858464,13.4686608 C3.45545055,12.3282491 2.94219685,10.903353 2.94219685,9.35088066 C2.94219685,5.61936332 5.87855736,2.59782025 9.49982834,2.59782025 C13.1204127,2.59782025 16.0578032,5.61936332 16.0578032,9.35088066 C16.0578032,12.8996918 13.4022731,15.8003732 10.030591,16.0792033 Z M9.49982834,0 C4.26155069,0 0,4.46940997 0,9.96473099 C0,11.9752057 0.567497244,13.9128806 1.64035199,15.5646575 C3.09977775,17.8161488 7.64353215,22.77466 9.50085828,25 C11.3629908,22.772893 15.9194478,17.8005994 17.3775003,15.5349722 C18.4397123,13.8906166 19,11.96213 19,9.96473099 C19,4.46940997 14.7387926,0 9.49982834,0 Z" id="Fill-35"></path>
                <path d="M10.17839,6.25 C8.30441658,6.25 6.78571429,7.80364589 6.78571429,9.72147974 C6.78571429,11.6400561 8.30441658,13.1944444 10.17839,13.1944444 C12.0509118,13.1944444 13.5714286,11.6400561 13.5714286,9.72147974 C13.5714286,7.80364589 12.0509118,6.25 10.17839,6.25" id="Fill-36"></path>
            </g>
        </g>
    </g>
</svg>